<?xml version="1.0" standalone="no"?>
<!DOCTYPE svg PUBLIC "-//W3C//DTD SVG 20010904//EN"
 "http://www.w3.org/TR/2001/REC-SVG-20010904/DTD/svg10.dtd">
<svg version="1.0" xmlns="http://www.w3.org/2000/svg"
 width="200.000000pt" height="200.000000pt" viewBox="0 0 200.000000 200.000000"
 preserveAspectRatio="xMidYMid meet">
<metadata>
Created by potrace 1.11, written by Peter Selinger 2001-2013
</metadata>
<g transform="translate(0.000000,200.000000) scale(0.100000,-0.100000)"
fill="#000000" stroke="none">
<path d="M0 1000 l0 -1000 1000 0 1000 0 0 1000 0 1000 -1000 0 -1000 0 0
-1000z m1166 403 c-14 -21 -28 -50 -31 -65 -6 -24 -4 -28 14 -28 12 0 21 -6
21 -15 0 -10 -10 -15 -33 -15 -34 0 -34 0 -55 -79 -23 -84 -28 -131 -13 -131
14 0 45 48 71 108 16 36 28 52 41 52 23 0 24 7 -6 -65 -13 -33 -25 -71 -25
-84 0 -23 1 -23 19 -7 10 9 21 30 24 45 3 16 19 50 35 77 21 37 35 50 56 52
41 5 59 -15 52 -57 l-7 -36 23 27 c13 15 30 37 39 49 8 12 20 19 27 15 7 -4 3
-24 -14 -64 l-25 -57 47 53 c43 49 66 62 78 44 3 -5 -6 -38 -19 -75 -26 -70
-20 -86 14 -39 11 15 21 22 21 15 0 -20 -51 -73 -71 -73 -26 0 -24 31 5 103
13 31 21 57 17 57 -6 0 -63 -84 -106 -154 -7 -11 -14 -13 -25 -6 -12 7 -12 16
-3 52 6 23 10 44 8 46 -2 2 -15 -14 -29 -37 -35 -54 -68 -76 -95 -61 -12 6
-21 16 -21 22 0 6 -11 1 -25 -12 -20 -19 -27 -21 -40 -10 -8 7 -15 21 -15 30
0 15 -5 13 -29 -11 -36 -35 -48 -36 -62 -5 l-11 24 -23 -26 c-24 -28 -53 -25
-62 7 -5 19 -6 18 -27 -5 -47 -55 -75 11 -41 94 28 66 81 103 100 71 5 -7 13
-5 24 5 10 9 22 12 30 7 11 -7 10 -13 -2 -32 -15 -24 -49 -129 -42 -129 12 0
49 68 62 113 8 29 17 60 20 70 4 11 0 17 -11 17 -9 0 -16 7 -16 15 0 9 9 15
23 15 16 0 28 12 45 44 29 54 58 86 78 86 11 0 8 -9 -10 -37z m-492 21 c9 -3
16 -16 16 -28 0 -27 -60 -130 -101 -172 -19 -19 -36 -53 -45 -89 -26 -97 2
-82 55 31 32 70 62 96 95 85 36 -14 32 -54 -10 -100 -20 -23 -43 -41 -50 -41
-8 0 -14 -9 -14 -20 0 -11 5 -20 12 -20 14 0 78 60 78 72 0 14 42 98 49 98 3
0 12 -4 19 -8 9 -6 6 -22 -13 -70 -14 -34 -25 -68 -25 -76 0 -31 30 -3 57 52
23 48 28 70 28 139 0 46 3 83 6 83 3 0 14 -9 24 -20 55 -61 -60 -325 -126
-289 -11 6 -19 20 -19 37 l0 27 -23 -27 c-30 -36 -58 -49 -80 -37 -9 6 -17 17
-17 26 0 14 -4 13 -23 -5 -28 -27 -54 -28 -61 -4 -8 24 28 165 57 224 l23 46
-60 -2 c-34 -2 -87 -3 -118 -4 -38 -1 -58 -6 -59 -14 0 -7 -9 -31 -20 -53 -10
-22 -16 -29 -12 -15 12 44 9 85 -7 92 -12 5 -12 7 3 7 10 1 29 13 43 29 24 25
25 26 19 4 l-7 -23 89 7 c60 4 96 3 111 -5 18 -10 23 -8 33 11 15 29 40 58 50
58 4 0 14 -3 23 -6z m556 -136 c-1 -18 -25 -48 -39 -48 -15 0 -14 33 1 48 16
16 38 15 38 0z m339 -35 c-12 -15 -12 -16 6 -10 14 5 12 1 -7 -14 -33 -25 -35
-42 -8 -76 22 -29 27 -13 10 31 -5 14 -6 26 -1 26 5 0 14 -12 19 -27 5 -16 13
-36 17 -45 13 -33 -36 -16 -61 22 -31 45 -30 64 2 89 32 25 41 27 23 4z m155
-204 l-38 -150 29 -87 c16 -47 37 -94 46 -103 15 -15 15 -17 -3 -28 -29 -18
-21 -73 12 -82 23 -7 24 -7 3 -8 -26 -1 -58 41 -49 64 7 18 -29 162 -46 182
-10 12 -14 11 -25 -9 -20 -35 -53 -147 -53 -178 0 -21 -11 -37 -46 -66 -35
-28 -43 -32 -35 -15 7 12 9 25 6 30 -3 5 3 7 13 4 22 -5 52 21 52 46 0 23 -19
41 -45 41 -18 0 -17 2 5 13 28 14 41 37 76 137 22 65 23 70 8 113 -8 25 -14
63 -12 84 l3 38 21 -54 21 -53 44 127 c24 69 45 121 47 115 3 -7 -13 -79 -34
-161z m-1254 126 c11 -13 6 -15 -31 -15 -24 -1 -63 -4 -86 -9 -57 -11 -47 15
10 28 63 14 93 13 107 -4z m1067 -125 c-58 -65 -107 -138 -107 -162 0 -17 2
-17 28 -4 35 18 107 96 117 125 4 13 9 20 12 18 2 -3 -1 -15 -7 -27 -6 -12
-13 -30 -15 -42 -4 -17 -2 -18 12 -6 14 11 15 11 5 -7 -32 -60 -126 -114 -163
-94 -28 14 -20 54 20 113 27 39 126 136 138 136 3 0 -15 -23 -40 -50z m-1010
-55 c1 -5 -30 -19 -70 -31 -39 -12 -90 -29 -112 -38 -34 -16 -37 -16 -26 -2 7
9 10 16 5 16 -16 0 33 29 82 49 50 21 115 24 121 6z"/>
<path d="M1282 1200 c-23 -37 -25 -61 -5 -67 17 -6 35 33 31 70 l-3 32 -23
-35z"/>
<path d="M932 1198 c-20 -26 -42 -78 -42 -100 0 -22 0 -22 13 -3 45 67 67 115
54 115 -8 0 -19 -6 -25 -12z"/>
<path d="M1236 1104 c-19 -49 14 -62 39 -14 15 29 15 30 -9 30 -13 0 -27 -7
-30 -16z"/>
<path d="M637 1363 c-36 -57 -49 -84 -44 -89 6 -6 38 38 61 84 25 48 12 51
-17 5z"/>
<path d="M668 1213 c-17 -20 -38 -58 -38 -69 0 -14 58 48 63 67 6 24 -5 24
-25 2z"/>
</g>
</svg>
