
		<svg xmlns="http://www.w3.org/2000/svg" xmlns:xlink="http://www.w3.org/1999/xlink" version="1.1" width="3149.2537313432836" height="1940.2985074626865">
			<rect fill="#000000" width="3149.2537313432836" height="1940.2985074626865"/>
			<g transform="scale(7.462686567164179) translate(10, 10)">
				<defs id="SvgjsDefs1154"><linearGradient id="SvgjsLinearGradient1159"><stop id="SvgjsStop1160" stop-color="#8f5e25" offset="0"></stop><stop id="SvgjsStop1161" stop-color="#fbf4a1" offset="0.5"></stop><stop id="SvgjsStop1162" stop-color="#8f5e25" offset="1"></stop></linearGradient><linearGradient id="SvgjsLinearGradient1163"><stop id="SvgjsStop1164" stop-color="#8f5e25" offset="0"></stop><stop id="SvgjsStop1165" stop-color="#fbf4a1" offset="0.5"></stop><stop id="SvgjsStop1166" stop-color="#8f5e25" offset="1"></stop></linearGradient></defs><g id="SvgjsG1155" featureKey="root" fill="#000000"></g><g id="SvgjsG1156" featureKey="symbol1" fill="url(#SvgjsLinearGradient1159)" transform="matrix(0.23942760168856916,0,0,0.23942760168856916,227.73593935898086,21.340498437294826)"><g xmlns="http://www.w3.org/2000/svg"><path d="M451.264,573.59c-3.935-19.076-19.676-32.742-38.017-34.976l0.545-0.545c-12.815-1.818-25.245-12.24-29.015-17.411   c-3.77-5.171-33.213-81.053-37.075-93.238c-2.57-8.097-3.794-9.657-6.395-7.148l0.514-1.034c0,0-3.011-13.17-4.107-17.95   c-0.453-1.983-4.59-13.69-9.633-27.754c31.8-92.589,70.6-236.618,70.6-236.618c0.771-3.39,1.524-7.46-4.217-8.703   c-5.741-1.236-8.739,5.11-8.739,5.11s-61.739,170.326-67.332,186.984c-0.979,2.913-2.625,7.699-4.639,13.537   c-2.044-5.673-3.715-10.331-4.719-13.182c-5.814-16.585-69.848-186.06-69.848-186.06s-3.084-6.304-8.807-4.988   c-5.722,1.316-4.914,5.379-4.1,8.758c0,0,40.655,143.184,73.679,235.351c-4.81,13.996-8.733,25.612-9.156,27.583   c-0.918,4.272-3.268,15.22-3.77,17.558c-2.111-1.689-3.403,0.214-6.01,7.503c-4.302,12.038-36.481,86.794-40.441,91.831   c-3.96,5.031-16.75,14.994-29.627,16.346l0.11,0.116c-18.366,1.61-34.541,14.682-39.156,33.562   c-4.235,17.332,2.43,34.811,15.582,45.221c2.203,4.241,5.973,13.005,3.176,18.99c-3.813,8.158-14.425,17.381-18.617,18.899   c0,0-13.25,6.805-12.173,10.202c1.077,3.397,17.571,4.804,29.676-6.928c12.301-11.928,17.375-26.677,38.36-33.629   c14.364-4.455,26.126-16.114,29.945-31.757c0.698-2.858,1.095-5.716,1.218-8.55l0.116,0.288c0.19-0.771-0.63-28.103,4.835-51.586   c5.465-23.476,31.787-87.669,31.598-86.898c-0.11,0.465,1.304-2.13,1.01-6.273l9.18-5c2.632-5.581,5.465-12.264,8.452-19.829   c3.133,7.644,6.096,14.388,8.837,20.006l8.727,4.602c-0.685,4.529,0.789,7.497,0.685,7.007   c-0.159-0.777,23.813,64.327,28.421,87.987c3.415,17.528,3.305,37.038,3.085,46.298c-0.557,4.614-0.398,9.382,0.588,14.18   c4.927,23.892,28.366,39.321,52.259,34.394C440.756,620.922,456.185,597.483,451.264,573.59z M248.601,586.962   c-4.541,18.586-23.36,30.013-41.946,25.471s-30.012-23.36-25.471-41.947c4.541-18.586,23.36-30.012,41.946-25.471   C241.715,549.557,253.142,568.376,248.601,586.962z M307.022,370.822c0-4.051,3.262-7.332,7.301-7.368   c4.045,0.031,7.319,3.317,7.319,7.368c0,4.045-3.262,7.332-7.301,7.368C310.29,378.16,307.022,374.874,307.022,370.822z    M414.942,616.51c-18.739,3.862-37.13-8.238-40.992-26.977c-3.862-18.739,8.238-37.13,26.977-40.992   c18.739-3.862,37.13,8.238,40.992,26.977C445.787,594.257,433.682,612.648,414.942,616.51z"></path></g></g><g id="SvgjsG1157" featureKey="text1" fill="url(#SvgjsLinearGradient1163)" transform="matrix(4.586344970555095,0,0,4.586344970555095,3.4856163931663597,-25.13140177463133)"><path d="M12.76 12.08 q-1.8 0.18 -3.96 0.36 l-1.8 0.12 l-2.58 6.34 l1.52 -0.3 q1.76 -0.36 3 -0.54 q1.72 -0.26 2.15 -0.18 t0.77 0.3 q0.26 0.18 0.46 0.44 q0.14 0.18 0.24 0.38 l0.06 0.16 l-1.5 0.1 q-1.76 0.12 -3.18 0.34 q-1.1 0.18 -2.02 0.42 q-0.74 0.2 -1.32 0.42 q-0.42 0.18 -0.72 0.34 l-0.22 0.14 l-0.52 1.1 q-0.62 1.34 -1.12 2.52 q-0.68 1.64 -1 2.74 q-0.38 1.34 -0.18 1.74 q0.16 0.32 0.74 0.24 q0.48 -0.06 1.38 -0.44 q0.56 -0.22 1.92 -0.86 q2.56 -1.2 4 -1.72 q2.44 -0.9 4.34 -1.02 q0.32 -0.02 0.74 0.24 q0.34 0.2 0.63 0.53 t0.35 0.56 t-0.2 0.21 q-1.4 -0.16 -4.18 0.78 q-1.58 0.52 -4.68 1.84 q-1.52 0.64 -2.08 0.86 q-0.9 0.34 -1.16 0.3 q-1.34 -0.16 -2.16 -1.26 q-0.7 -0.98 -0.92 -2.52 q-0.16 -1.12 2.28 -6.92 q1.26 -3.02 3 -6.82 l0.1 -0.2 q-0.02 0.02 -0.82 0.02 q-0.9 0.02 -1.68 0 q-1.02 -0.04 -1.46 -0.12 q-0.6 -0.14 -1 -0.48 q-0.34 -0.28 -0.52 -0.68 q-0.14 -0.28 -0.2 -0.6 l-0.02 -0.26 l0.3 0.12 q0.4 0.14 0.82 0.24 q0.6 0.14 1.16 0.14 q1.16 0.02 2.32 0 q0.8 -0.04 1.54 -0.1 l0.56 -0.04 l0.2 -0.32 q0.26 -0.38 0.5 -0.66 q0.34 -0.4 0.6 -0.55 t0.58 -0.21 q0.24 -0.04 0.5 -0.04 l0.2 0 l-0.86 1.56 l1.82 -0.1 q2.12 -0.1 3.66 -0.12 q2.16 0 2.84 0.18 q0.52 0.14 0.88 0.4 q0.28 0.22 0.46 0.5 q0.12 0.2 0.18 0.42 l0.02 0.18 l-0.22 -0.08 q-0.32 -0.1 -0.78 -0.18 q-0.64 -0.08 -1.46 -0.08 q-1.04 -0.02 -2.3 0.12 z M19.42 14.16 q1.3 -1.7 2 -3.16 q0.8 -1.62 0.38 -2.06 q-1.34 -1.62 -2.98 0.16 q-1.32 1.42 -3.06 5.4 q-1.1 2.44 -1.76 4.94 q-0.58 2.28 -0.52 3.44 q0.02 0.46 0.3 0.75 t0.66 0.36 t0.7 -0.09 q0.72 -0.32 1.36 -1.18 t1.26 -2.3 q0.18 -0.42 0.24 -0.94 q0.04 -0.38 0 -0.78 l-0.04 -0.32 l0 0.2 q0 0.28 -0.1 0.58 q-0.12 0.4 -0.38 0.8 q-0.44 0.76 -1 1.49 t-1 1.13 q-0.48 0.44 -0.66 0.33 t0.16 -1.45 q0.24 -0.98 0.7 -2.46 l0.42 -1.3 l0.36 -0.32 q0.8 -0.72 1.3 -1.24 q0.86 -0.88 1.66 -1.98 z M21.04 9.06 q0.08 0.08 -0.06 0.54 t-0.48 1.1 q-0.4 0.72 -0.92 1.48 q-0.4 0.74 -1.06 1.56 q-0.48 0.58 -1.02 1.14 l-0.46 0.44 l0.56 -1.18 q0.66 -1.4 1.28 -2.42 q0.68 -1.12 1.35 -1.95 t0.81 -0.71 z M19.56 21.259999999999998 q0.26 0 0.96 -0.52 q0.74 -0.56 1.4 -1.28 q0.78 -0.86 1.12 -1.62 q0.38 -0.9 0.04 -1.54 q-0.12 -0.24 -0.56 -0.54 q-0.54 -0.36 -1.04 -0.42 q-0.58 -0.08 -1.34 0.42 q-0.54 0.34 -1.06 0.88 q-1.12 1.52 -1.64 3.12 q-0.44 1.36 -0.3 2.3 q0.08 0.74 0.42 1.22 q0.28 0.38 0.7 0.58 q0.34 0.14 0.64 0.14 q0.9 0 1.94 -0.86 q0.9 -0.74 1.42 -1.7 q0.16 -0.3 0.26 -0.6 q0.06 -0.22 0.08 -0.42 l0.02 -0.14 l-0.2 0.26 q-0.26 0.32 -0.6 0.66 q-0.44 0.46 -0.95 0.87 t-0.79 0.59 q-0.46 0.3 -0.84 0.37 t-0.5 -0.21 t-0.08 -0.9 q0.04 -0.42 0.14 -0.74 l0.1 -0.22 l0.02 0.08 q0.06 0.08 0.18 0.14 q0.16 0.08 0.46 0.08 z M22.259999999999998 16.12 q0 0.1 -0.02 0.2 q-0.04 0.24 -0.12 0.5 q-0.12 0.38 -0.32 0.74 q-0.54 0.76 -1.02 1.3 q-0.4 0.46 -0.76 0.76 q-0.3 0.24 -0.54 0.38 q-0.16 0.08 -0.3 0.12 l-0.1 0 l0.16 -0.46 q0.22 -0.54 0.48 -1.06 q0.38 -0.7 0.81 -1.2 t0.87 -0.84 q0.32 -0.22 0.62 -0.36 z M29.88 14.12 q0.04 -0.84 -0.18 -1.46 q-0.2 -0.54 -0.58 -0.9 q-0.3 -0.28 -0.72 -0.44 q-0.28 -0.12 -0.6 -0.18 l-0.26 -0.02 l0.14 0.38 q0.16 0.52 0.26 1.12 q0.14 0.86 0.14 1.78 q0 1.16 -0.22 2.36 q-0.26 1.42 -0.82 2.86 q-0.54 1.24 -1.2 2.08 q-0.52 0.66 -1.08 1 q-0.44 0.28 -0.74 0.28 q-0.06 0.06 -0.06 -0.19 t0.08 -0.67 q0.1 -0.48 0.24 -0.94 q0.18 -0.58 0.42 -1.04 q0.42 -1.06 1 -2.32 l0.5 -1.04 l-0.14 -0.18 q-0.18 -0.18 -0.38 -0.32 q-0.28 -0.18 -0.54 -0.2 q-0.34 -0.02 -0.62 0.2 q-0.66 0.84 -1.18 2.06 q-0.7 1.62 -0.82 3.28 l0.02 0.32 q0.04 0.4 0.14 0.72 q0.12 0.42 0.36 0.64 q0.84 0.88 1.48 0.68 q0.4 -0.2 1 -0.72 q0.86 -0.74 1.62 -1.76 q0.98 -1.34 1.64 -3 q0.8 -2 1.1 -4.38 z M34.379999999999995 22.7 q-0.06 -0.08 0.14 -0.94 q0.22 -1.02 0.56 -2.02 q0.44 -1.3 1 -2.22 q0.28 -0.5 0.58 -0.98 l0.26 -0.36 l-0.22 -0.14 q-0.26 -0.16 -0.52 -0.24 q-0.36 -0.1 -0.61 -0.03 t-0.49 0.33 q-0.16 0.2 -0.32 0.48 l-0.1 0.24 l-0.28 -0.2 q-0.36 -0.24 -0.7 -0.38 q-0.48 -0.22 -0.86 -0.22 q-0.5 -0.02 -0.84 0.28 q-1.14 0.98 -1.9 2.22 q-0.64 1.02 -0.96 2.16 q-0.26 0.9 -0.3 1.72 q-0.04 0.68 0.08 0.9 q0.12 0.34 0.76 0.58 q0.56 0.22 0.96 0.16 q0.2 -0.04 0.78 -0.7 q0.4 -0.48 0.96 -1.22 l0.46 -0.66 l-0.06 0.42 q-0.04 0.52 0 0.92 q0.04 0.56 0.22 0.82 q0.16 0.18 0.68 0.32 q0.56 0.18 0.86 0.06 q0.66 -0.22 1.26 -1.14 q0.48 -0.74 0.92 -1.9 q0.3 -0.82 0.54 -1.76 l0.18 -0.78 l-0.58 1.06 q-0.68 1.2 -1.24 1.98 q-0.36 0.5 -0.77 0.91 t-0.45 0.33 z M32.739999999999995 17.38 q0.28 -0.3 0.56 -0.38 q0.24 -0.06 0.48 0.02 q0.16 0.06 0.32 0.18 l0.12 0.1 l-0.42 0.74 q-0.5 0.92 -1 1.72 q-0.7 1.14 -1.26 1.92 q-0.32 0.46 -0.72 0.88 l-0.32 0.34 l0 -0.3 q0 -0.4 0.06 -0.84 q0.1 -0.62 0.3 -1.24 q0.26 -0.78 0.68 -1.5 q0.5 -0.86 1.2 -1.64 z M43.54 8.44 q0.68 -0.64 0.96 -0.54 q-0.36 -0.22 -0.84 -0.24 q-0.76 0 -1.48 0.6 q-0.62 0.48 -1.44 1.8 q-0.8 1.24 -1.62 2.96 l-2.26 0.12 l-0.02 0.24 q0 0.28 0.04 0.48 q0.08 0.28 0.24 0.36 q0.3 0.12 1.46 0.04 q-0.94 2.22 -1.46 4.2 q-0.6 2.2 -0.54 3.58 q0.08 1.56 0.98 1.9 q0.56 0.2 1.28 -0.22 q0.56 -0.32 1.14 -0.98 q0.46 -0.52 0.7 -0.94 q0.18 -0.34 0.28 -0.66 q0.08 -0.28 0.12 -0.52 q0.02 -0.18 0 -0.29 t-0.06 -0.05 q-0.2 0.4 -0.62 1.04 q-0.58 0.84 -1.06 1.32 q-0.64 0.64 -1.04 0.54 q-0.34 -0.08 -0.24 -1.22 t0.56 -2.74 q0.46 -1.5 1.12 -3.38 l0.56 -1.58 l0.02 -0.02 q0.06 0 0.3 -0.02 q0.36 -0.04 1 -0.06 q0.88 -0.04 1.38 -0.04 l0.34 0 l-0.02 -0.26 q-0.06 -0.3 -0.16 -0.5 q-0.16 -0.28 -0.42 -0.3 q-0.72 -0.08 -1.32 -0.08 l-0.46 0.02 l0.42 -0.92 q0.5 -1.1 0.98 -1.96 q0.68 -1.18 1.18 -1.68 z M44.5 7.899999999999999 l0.08 0.06 l-0.02 -0.02 q-0.02 -0.02 -0.06 -0.04 z M43.34 15.64 l0.24 -0.56 q0.3 -0.66 0.58 -1.04 q0.2 -0.24 0.56 -0.34 q0.3 -0.08 0.66 -0.04 q0.3 0.02 0.54 0.1 t0.2 0.14 q-0.06 0.1 -0.28 0.42 q-0.64 0.86 -0.96 1.46 q-0.08 0.14 -0.48 0.1 q-0.28 -0.02 -0.7 -0.14 z M44.720000000000006 16.54 q-0.1 -0.06 -0.2 -0.1 q-0.24 -0.12 -0.48 -0.16 q-0.34 -0.08 -0.62 -0.02 q-0.34 0.1 -0.58 0.38 q-0.46 0.54 -1 1.82 q-0.56 1.36 -0.78 2.6 q-0.12 0.68 -0.08 1.26 q0.02 0.76 0.28 1.14 q0.48 0.72 1.22 0.54 q0.6 -0.16 1.16 -0.8 q0.48 -0.5 0.9 -1.3 q0.32 -0.56 0.58 -1.2 l0.2 -0.54 l-0.26 0.44 q-0.32 0.52 -0.66 0.98 q-0.48 0.64 -0.92 1.04 q-0.58 0.5 -1.06 0.6 q-0.32 0.06 -0.22 -0.74 q0.08 -0.74 0.48 -1.93 t0.94 -2.25 q0.58 -1.18 1.1 -1.76 z M51.96000000000001 18.68 q0.04 -0.16 0 -0.32 q-0.02 -0.12 -0.1 -0.22 l-0.06 -0.1 l-0.1 0.14 q-0.14 0.2 -0.4 0.38 q-0.2 0.16 -0.6 0.42 l-0.38 0.22 l0.16 -0.64 q0.16 -0.76 0.18 -1.34 q0.04 -0.8 -0.18 -1.1 q-0.12 -0.16 -0.49 -0.36 t-0.81 -0.3 q-0.48 -0.12 -0.84 -0.06 q-0.76 0.1 -1.42 0.68 q-0.54 0.46 -0.96 1.22 q-0.32 0.54 -0.56 1.16 l-0.16 0.52 l-0.08 0 q-0.1 0.02 -0.18 0.08 q-0.14 0.08 -0.24 0.24 q-0.14 0.2 -0.22 0.5 q-0.44 1.5 -0.24 2.52 q0.16 0.92 0.82 1.36 q0.6 0.4 1.46 0.3 q0.68 -0.08 1.3 -0.5 q0.52 -0.34 0.98 -0.92 q0.36 -0.46 0.66 -1.04 q0.22 -0.42 0.4 -0.86 l0.12 -0.36 l0.22 -0.1 q0.28 -0.16 0.68 -0.46 t0.7 -0.61 t0.34 -0.45 z M49.38 16.240000000000002 q0.14 0 0.09 0.92 t-0.21 1.8 q-0.22 1 -0.46 1.2 q-0.16 0.12 -0.56 0.18 t-0.68 -0.04 q-0.32 -0.12 -0.3 -0.44 q0.02 -0.72 0.32 -1.44 q0.26 -0.6 0.66 -1.14 q0.34 -0.46 0.7 -0.76 q0.32 -0.28 0.44 -0.28 z M46.46 20.58 l0 0.06 q0.02 0.08 0.11 0.17 t0.27 0.17 q0.22 0.08 0.56 0.12 q0.24 0.02 0.54 -0.02 q0.2 -0.04 0.4 -0.12 l0.16 -0.06 l-0.18 0.42 q-0.24 0.52 -0.5 0.92 q-0.36 0.58 -0.72 0.88 q-0.44 0.38 -0.86 0.32 q-0.36 -0.06 -0.3 -0.8 q0.04 -0.54 0.28 -1.34 z M56.32000000000001 22.58 q0.2 -0.82 0.78 -2.28 q0.32 -0.82 0.94 -2.26 q0.42 -0.98 0.42 -1.04 q0.02 -0.12 -0.25 -0.32 t-0.59 -0.34 q-0.36 -0.14 -0.58 -0.1 q-0.6 0.14 -2.58 2.3 q-0.48 0.52 -0.96 1.16 q-0.36 0.46 -0.68 0.92 l-0.24 0.38 l0.26 -0.76 q0.34 -0.9 0.7 -1.7 q0.4 -0.94 0.88 -1.92 l0.4 -0.78 l-0.08 -0.08 q-0.1 -0.1 -0.24 -0.14 q-0.2 -0.08 -0.44 -0.06 q-0.32 0.02 -0.7 0.17 t-1 1.29 q-0.54 1 -1.1 2.44 q-0.54 1.4 -0.84 2.52 q-0.3 1.2 -0.16 1.46 q0.16 0.32 0.56 0.46 q0.28 0.1 0.66 0.12 l0.3 -0.02 l0.28 -0.54 q0.36 -0.68 0.76 -1.34 q0.54 -0.92 1.08 -1.68 q0.58 -0.8 1.32 -1.68 q0.52 -0.62 1.08 -1.2 l0.46 -0.46 l-0.42 0.86 q-0.5 1.02 -0.86 1.94 q-0.54 1.3 -0.74 2.16 q-0.26 1.1 0 1.48 q0.16 0.2 0.77 0.36 t0.83 0.1 q0.3 -0.08 1.12 -1 q0.76 -0.86 1.06 -1.38 t0.42 -1.12 q0.08 -0.42 0.06 -0.86 l-0.02 -0.34 q-0.26 0.62 -0.78 1.38 q-0.5 0.72 -1.04 1.27 t-0.84 0.63 z M67.2 19.2 q-0.04 -0.06 -0.06 -0.1 q-0.1 -0.12 -0.28 -0.18 q-0.26 -0.1 -0.66 -0.06 q-0.84 0.06 -1.96 0.68 q-0.8 0.42 -1.9 1.22 q-0.14 -0.2 -0.84 -0.74 q-0.82 -0.64 -1.18 -1 q-0.58 -0.62 -0.6 -1.14 q0 -0.64 0.9 -1.16 q1.04 -0.6 3.3 -1.06 q0.46 -0.08 0.48 0.22 l0 0.02 q0.08 -0.04 0.13 -0.36 t-0.03 -0.64 q-0.1 -0.4 -0.36 -0.66 q-0.34 -0.28 -0.9 -0.3 q-0.66 -0.02 -1.6 0.36 q-1.7 0.68 -2.44 1.48 q-0.66 0.7 -0.6 1.52 q0.04 0.68 0.56 1.48 q0.3 0.48 1.04 1.34 q0.44 0.52 0.6 0.74 q0.28 0.38 0.36 0.62 l-0.66 0.48 q-0.84 0.64 -1.64 1.32 q-1.14 0.98 -2.08 1.96 q-1.42 1.44 -2.38 2.94 q-1.04 1.66 -1.12 2.72 q-0.02 0.32 0.42 0.7 q0.38 0.36 0.94 0.59 t0.9 0.17 q1.82 -0.32 3.6 -1.58 q1.66 -1.18 2.84 -2.87 t1.46 -3.33 q0.32 -1.78 -0.54 -3.04 l0.28 -0.24 q0.36 -0.28 0.8 -0.58 q0.64 -0.4 1.36 -0.76 q0.88 -0.44 1.86 -0.76 z M61.480000000000004 22.34 l0.04 0.24 q0.06 0.32 0.04 0.68 q-0.04 0.54 -0.2 1.12 q-0.22 0.72 -0.62 1.46 q-0.48 0.9 -1.21 1.8 t-1.83 1.76 q-1 0.82 -1.88 1.25 t-1.08 0.21 q-0.3 -0.32 0.36 -1.48 q0.6 -1.06 1.8 -2.52 q1.16 -1.42 2.4 -2.66 q1.3 -1.3 2.18 -1.86 z "></path></g><g id="SvgjsG1158" featureKey="text3" fill="#8f5e25" transform="matrix(1.262230252472361,0,0,1.262230252472361,74.70273952006755,94.57965532682749)"><path d="M6.82 9.84 c1.2933 0 2.32 0.32 3.08 0.96 s1.14 1.5 1.14 2.58 c0 1.5333 -0.81334 2.5734 -2.44 3.12 l0 0.04 l0.02 0 c0.92 0.10666 1.6567 0.49 2.21 1.15 s0.83 1.45 0.83 2.37 c0 1.1867 -0.45666 2.14 -1.37 2.86 s-2.09 1.08 -3.53 1.08 l-4.94 0 l0 -14.16 l5 0 z M6.42 15.72 c0.8 0 1.43 -0.18334 1.89 -0.55 s0.69 -0.89 0.69 -1.57 c0 -0.64 -0.2 -1.1467 -0.6 -1.52 s-0.92666 -0.56 -1.58 -0.56 l-3.08 0 l0 4.2 l2.68 0 z M6.64 22.32 c0.94666 0 1.68 -0.22 2.2 -0.66 s0.78 -1.02 0.78 -1.74 c0 -0.8 -0.26334 -1.42 -0.79 -1.86 s-1.27 -0.66 -2.23 -0.66 l-2.86 0 l0 4.92 l2.9 0 z M23.986 9.84 l0 1.8 l-7.22 0 l0 4.22 l6.72 0 l0 1.8 l-6.72 0 l0 4.54 l7.58 0 l0 1.8 l-9.5 0 l0 -14.16 l9.14 0 z M33.672 9.84 l6.06 14.16 l-2.24 0 l-1.42 -3.5 l-6.74 0 l-1.4 3.5 l-2.24 0 l6.24 -14.16 l1.74 0 z M30.012 18.82 l5.36 0 l-2.64 -6.5 l-0.04 0 z M43.657999999999994 9.84 l0 8.74 c0 1.16 0.32334 2.1134 0.97 2.86 s1.51 1.12 2.59 1.12 s1.9433 -0.37334 2.59 -1.12 s0.97 -1.7 0.97 -2.86 l0 -8.74 l1.92 0 l0 9.06 c0 0.97334 -0.23 1.8833 -0.69 2.73 s-1.1133 1.5133 -1.96 2 s-1.79 0.73 -2.83 0.73 c-1.6 0 -2.9134 -0.52334 -3.94 -1.57 s-1.54 -2.3434 -1.54 -3.89 l0 -9.06 l1.92 0 z M65.944 9.84 l0 1.8 l-4.56 0 l0 12.36 l-1.92 0 l0 -12.36 l-4.56 0 l0 -1.8 l11.04 0 z M68.85000000000001 9.84 l3.86 6.22 l3.98 -6.22 l2.34 0 l-5.36 8.12 l0 6.04 l-1.92 0 l0 -6.04 l-5.36 -8.12 l2.46 0 z  M92.06200000000001 9.84 c1.2933 0 2.32 0.32 3.08 0.96 s1.14 1.5 1.14 2.58 c0 1.5333 -0.81334 2.5734 -2.44 3.12 l0 0.04 l0.02 0 c0.92 0.10666 1.6567 0.49 2.21 1.15 s0.83 1.45 0.83 2.37 c0 1.1867 -0.45666 2.14 -1.37 2.86 s-2.09 1.08 -3.53 1.08 l-4.94 0 l0 -14.16 l5 0 z M91.662 15.72 c0.8 0 1.43 -0.18334 1.89 -0.55 s0.69 -0.89 0.69 -1.57 c0 -0.64 -0.2 -1.1467 -0.6 -1.52 s-0.92666 -0.56 -1.58 -0.56 l-3.08 0 l0 4.2 l2.68 0 z M91.882 22.32 c0.94666 0 1.68 -0.22 2.2 -0.66 s0.78 -1.02 0.78 -1.74 c0 -0.8 -0.26334 -1.42 -0.79 -1.86 s-1.27 -0.66 -2.23 -0.66 l-2.86 0 l0 4.92 l2.9 0 z M106.268 9.84 l6.06 14.16 l-2.24 0 l-1.42 -3.5 l-6.74 0 l-1.4 3.5 l-2.24 0 l6.24 -14.16 l1.74 0 z M102.608 18.82 l5.36 0 l-2.64 -6.5 l-0.04 0 z M119.674 9.84 c1.3867 0 2.4734 0.34666 3.26 1.04 s1.18 1.6667 1.18 2.92 c0 0.94666 -0.32334 1.7733 -0.97 2.48 s-1.4767 1.1267 -2.49 1.26 l-0.02 0 l4.02 6.46 l-2.4 0 l-3.6 -6.24 l-2.14 0 l0 6.24 l-1.92 0 l0 -14.16 l5.08 0 z M119.114 16.08 c1 0 1.7433 -0.18336 2.23 -0.55002 s0.73 -0.94332 0.73 -1.73 c0 -1.52 -0.98666 -2.28 -2.96 -2.28 l-2.6 0 l0 4.56 l2.6 0 z"></path></g>
			</g>
		</svg>
	